<?xml version="1.0" encoding="UTF-8"?>
<svg width="378px" height="313px" viewBox="0 0 378 313" version="1.1" xmlns="http://www.w3.org/2000/svg" xmlns:xlink="http://www.w3.org/1999/xlink">
    <!-- Generator: Sketch 42 (36781) - http://www.bohemiancoding.com/sketch -->
    <title>stamp-3</title>
    <desc>Created with Sketch.</desc>
    <defs>
        <polygon id="path-1" points="30.4925582 62.9185751 60.6283291 62.9185751 60.6283291 0.145748092 0.356787342 0.145748092 0.356787342 62.9185751"></polygon>
    </defs>
    <g id="Concept" stroke="none" stroke-width="1" fill="none" fill-rule="evenodd">
        <g id="stamp-3">
            <g id="Page-1">
                <polygon id="Fill-1" fill="#91D2C9" points="0 63.5700611 15.4908228 63.5700611 15.4908228 0.797234097 0 0.797234097"></polygon>
                <g id="Group-21" transform="translate(0.000000, 0.116280)">
                    <g id="Group-4" transform="translate(32.696203, 0.000000)" fill="#91D2C9">
                        <path d="M14.2222899,14.9952486 C14.2222899,22.0198288 12.5308595,26.3763427 7.18861899,30.9996634 L0.690049367,25.7543249 C3.89507468,22.9086532 4.69573291,21.0418033 5.05220127,15.6180628 L0.690049367,15.6180628 L0.690049367,0.680078117 L14.2222899,0.680078117 L14.2222899,14.9952486 Z" id="Fill-2"></path>
                    </g>
                    <path d="M119.9205,63.453144 C119.9205,30.7330957 120.009816,25.1317496 120.276171,17.3959506 C117.78488,26.2873807 116.092652,31.7111211 106.477576,63.453144 L93.2116899,63.453144 C84.1317152,33.4895664 82.0838165,26.5541873 79.5917278,17.3067496 C79.7695633,25.0425486 79.7695633,31.2659125 79.7695633,63.453144 L65.1695127,63.453144 L65.1695127,0.680317048 L86.8024367,0.680317048 C96.3289937,29.9326758 98.1982595,36.6896529 100.067525,44.5146529 C101.848272,36.6896529 103.717538,29.4882636 112.976146,0.680317048 L134.521348,0.680317048 L134.521348,63.453144 L119.9205,63.453144 Z" id="Fill-5" fill="#91D2C9"></path>
                    <g id="Group-9" transform="translate(0.000000, 80.440204)" fill="#91D2C9">
                        <path d="M14.9564392,29.7537959 L24.5707177,29.7537959 C29.5572873,29.7537959 32.6729962,28.9533761 34.4529456,27.3533328 C35.9665405,25.9308952 36.5901608,23.8856433 36.5901608,21.3067781 C36.5901608,18.6395084 35.8780215,16.2390453 33.8293253,14.639002 C32.0493759,13.304969 29.200819,12.5937501 24.8386671,12.5937501 L14.9564392,12.5937501 L14.9564392,29.7537959 Z M27.0644013,0.146225954 C36.8565152,0.146225954 42.8215785,2.10148041 46.5609076,5.56916997 C50.923857,9.65967379 52.1695025,15.3502209 52.1695025,20.9515669 C52.1695025,27.0865262 50.2109203,32.5986712 45.8487684,36.599974 C41.7529709,40.4236712 35.7887051,42.2021165 27.5093886,42.2021165 L14.9564392,42.2021165 L14.9564392,62.9182565 L-7.97468355e-05,62.9182565 L-7.97468355e-05,0.146225954 L27.0644013,0.146225954 Z" id="Fill-7"></path>
                    </g>
                    <path d="M92.0977063,108.238108 C95.8378329,108.238108 98.4200354,107.615294 100.021352,106.370462 C101.802099,105.037225 102.424922,103.081174 102.424922,100.769116 C102.424922,98.1910468 101.979934,95.9681893 100.110668,94.5457517 C98.507757,93.3009196 95.9263519,92.6781053 91.7420354,92.6781053 L81.2369848,92.6781053 L81.2369848,108.238108 L92.0977063,108.238108 Z M103.047744,143.358619 L89.0713139,119.796808 L81.2369848,119.796808 L81.2369848,143.358619 L66.2796684,143.358619 L66.2796684,80.5857924 L95.1240987,80.5857924 C104.918605,80.5857924 110.705035,83.4314641 113.99858,87.4319705 C116.847934,90.8996601 117.915744,95.3453751 117.915744,99.6134845 C117.915744,109.838948 111.950681,115.173487 103.671365,117.395548 L120.319314,143.358619 L103.047744,143.358619 Z" id="Fill-10" fill="#91D2C9"></path>
                    <polygon id="Fill-12" fill="#91D2C9" points="136.483678 143.358779 136.483678 80.5859517 182.510362 80.5859517 182.510362 93.0342723 151.440995 93.0342723 151.440995 104.948183 180.464058 104.948183 180.464058 117.395707 151.440995 117.395707 151.440995 130.822053 184.114071 130.822053 184.114071 143.358779"></polygon>
                    <polygon id="Fill-14" fill="#91D2C9" points="213.140085 143.358779 213.140085 93.0342723 196.492135 93.0342723 196.492135 80.5859517 245.368173 80.5859517 245.368173 93.0342723 228.630908 93.0342723 228.630908 143.358779"></polygon>
                    <polygon id="Fill-16" fill="#91D2C9" points="274.215873 143.358779 274.215873 93.0342723 257.567127 93.0342723 257.567127 80.5859517 306.443962 80.5859517 306.443962 93.0342723 289.706696 93.0342723 289.706696 143.358779"></polygon>
                    <g id="Group-20" transform="translate(316.594937, 80.440204)">
                        <mask id="mask-2" fill="white">
                            <use xlink:href="#path-1"></use>
                        </mask>
                        <g id="Clip-19"></g>
                        <path d="M23.1476354,62.9185751 L23.1476354,38.3787379 L0.356787342,0.145748092 L17.2718886,0.145748092 C21.8118759,8.23675827 26.4419772,16.4169695 30.8041291,24.5079796 C34.8106101,16.5945751 38.4606228,10.4596158 44.3355722,0.145748092 L60.6286481,0.145748092 L38.2827873,38.3787379 L38.2827873,62.9185751 L23.1476354,62.9185751 Z" id="Fill-18" fill="#91D2C9" mask="url(#mask-2)"></path>
                    </g>
                </g>
            </g>
            <rect id="Rectangle-3" fill="#91D2C9" x="0" y="157.694656" width="378" height="155.305344"></rect>
        </g>
    </g>
</svg>